# xmcd
#
# Track frame offsets: 
#        150
#        16334
#        37430
#        69950
#        83374
#        109911
#        133367
#        155946
#
# Disc length: 2359 seconds
#
# Revision: 0
# Processed by: cddbd v1.5.2PL0 Copyright (c) Steve Scherf et al.
# Submitted via: ExactAudioCopyFreeDBPlugin 1.0
#
DISCID=6d093508
DTITLE=Danny Johnson - Introducing Danny Johnson
DYEAR=1978
DGENRE=Soul
TTITLE0=Talking My Love For Granted
TTITLE1=Future Past
TTITLE2=Learning To Love You Was Easy (It's So Hard Trying To Get Over
TTITLE2=You)
TTITLE3=I Might As Well Forget Loving You
TTITLE4=Dance, Dance, Dance
TTITLE5=Dreamin' Again
TTITLE6=Be Nice To Me
TTITLE7=Red Hot Mama
EXTD=
EXTT0=
EXTT1=
EXTT2=
EXTT3=
EXTT4=
EXTT5=
EXTT6=
EXTT7=
PLAYORDER=
